<svg id="visual" viewBox="0 0 1920 500" width="1920" height="500" xmlns="http://www.w3.org/2000/svg" xmlns:xlink="http://www.w3.org/1999/xlink" version="1.1"><rect x="0" y="0" width="1920" height="500" fill="#fffbeb"></rect><defs><linearGradient id="grad1_0" x1="74%" y1="0%" x2="100%" y2="100%"><stop offset="-26.799999999999997%" stop-color="#f5deb3" stop-opacity="1"></stop><stop offset="126.80000000000001%" stop-color="#f5deb3" stop-opacity="1"></stop></linearGradient></defs><defs><linearGradient id="grad1_1" x1="74%" y1="0%" x2="100%" y2="100%"><stop offset="-26.799999999999997%" stop-color="#f5deb3" stop-opacity="1"></stop><stop offset="126.80000000000001%" stop-color="#f7e6c1" stop-opacity="1"></stop></linearGradient></defs><defs><linearGradient id="grad1_2" x1="74%" y1="0%" x2="100%" y2="100%"><stop offset="-26.799999999999997%" stop-color="#f9edcf" stop-opacity="1"></stop><stop offset="126.80000000000001%" stop-color="#f7e6c1" stop-opacity="1"></stop></linearGradient></defs><defs><linearGradient id="grad1_3" x1="74%" y1="0%" x2="100%" y2="100%"><stop offset="-26.799999999999997%" stop-color="#f9edcf" stop-opacity="1"></stop><stop offset="126.80000000000001%" stop-color="#fcf4dd" stop-opacity="1"></stop></linearGradient></defs><defs><linearGradient id="grad1_4" x1="74%" y1="0%" x2="100%" y2="100%"><stop offset="-26.799999999999997%" stop-color="#fffbeb" stop-opacity="1"></stop><stop offset="126.80000000000001%" stop-color="#fcf4dd" stop-opacity="1"></stop></linearGradient></defs><defs><linearGradient id="grad2_0" x1="0%" y1="0%" x2="26%" y2="100%"><stop offset="-26.799999999999997%" stop-color="#f5deb3" stop-opacity="1"></stop><stop offset="126.80000000000001%" stop-color="#f5deb3" stop-opacity="1"></stop></linearGradient></defs><defs><linearGradient id="grad2_1" x1="0%" y1="0%" x2="26%" y2="100%"><stop offset="-26.799999999999997%" stop-color="#f7e6c1" stop-opacity="1"></stop><stop offset="126.80000000000001%" stop-color="#f5deb3" stop-opacity="1"></stop></linearGradient></defs><defs><linearGradient id="grad2_2" x1="0%" y1="0%" x2="26%" y2="100%"><stop offset="-26.799999999999997%" stop-color="#f7e6c1" stop-opacity="1"></stop><stop offset="126.80000000000001%" stop-color="#f9edcf" stop-opacity="1"></stop></linearGradient></defs><defs><linearGradient id="grad2_3" x1="0%" y1="0%" x2="26%" y2="100%"><stop offset="-26.799999999999997%" stop-color="#fcf4dd" stop-opacity="1"></stop><stop offset="126.80000000000001%" stop-color="#f9edcf" stop-opacity="1"></stop></linearGradient></defs><defs><linearGradient id="grad2_4" x1="0%" y1="0%" x2="26%" y2="100%"><stop offset="-26.799999999999997%" stop-color="#fcf4dd" stop-opacity="1"></stop><stop offset="126.80000000000001%" stop-color="#fffbeb" stop-opacity="1"></stop></linearGradient></defs><g transform="translate(1920, 0)"><path d="M0 450C-58.9 444.1 -117.7 438.2 -172.2 415.7C-226.7 393.3 -276.8 354.4 -307.6 307.6C-338.4 260.8 -350 206 -370.5 153.5C-391 100.9 -420.5 50.4 -450 0L0 0Z" fill="#fdf8e4"></path><path d="M0 360C-47.1 355.3 -94.2 350.5 -137.8 332.6C-181.3 314.7 -221.4 283.5 -246.1 246.1C-270.7 208.6 -280 164.8 -296.4 122.8C-312.8 80.7 -336.4 40.3 -360 0L0 0Z" fill="#faf1d6"></path><path d="M0 270C-35.3 266.4 -70.6 262.9 -103.3 249.4C-136 236 -166.1 212.6 -184.6 184.6C-203 156.5 -210 123.6 -222.3 92.1C-234.6 60.5 -252.3 30.3 -270 0L0 0Z" fill="#f8e9c8"></path><path d="M0 180C-23.5 177.6 -47.1 175.3 -68.9 166.3C-90.7 157.3 -110.7 141.8 -123 123C-135.4 104.3 -140 82.4 -148.2 61.4C-156.4 40.3 -168.2 20.2 -180 0L0 0Z" fill="#f6e2ba"></path><path d="M0 90C-11.8 88.8 -23.5 87.6 -34.4 83.1C-45.3 78.7 -55.4 70.9 -61.5 61.5C-67.7 52.2 -70 41.2 -74.1 30.7C-78.2 20.2 -84.1 10.1 -90 0L0 0Z" fill="#f5deb3"></path></g><g transform="translate(0, 500)"><path d="M0 -450C43.2 -403.7 86.3 -357.3 140.8 -340C195.3 -322.7 261.1 -334.3 311.1 -311.1C361.1 -287.9 395.2 -229.9 415.7 -172.2C436.3 -114.5 443.1 -57.3 450 0L0 0Z" fill="#fdf8e4"></path><path d="M0 -360C34.5 -322.9 69.1 -285.9 112.7 -272C156.3 -258.1 208.9 -267.5 248.9 -248.9C288.9 -230.3 316.2 -183.9 332.6 -137.8C349 -91.6 354.5 -45.8 360 0L0 0Z" fill="#faf1d6"></path><path d="M0 -270C25.9 -242.2 51.8 -214.4 84.5 -204C117.2 -193.6 156.7 -200.6 186.7 -186.7C216.7 -172.8 237.1 -137.9 249.4 -103.3C261.8 -68.7 265.9 -34.4 270 0L0 0Z" fill="#f8e9c8"></path><path d="M0 -180C17.3 -161.5 34.5 -142.9 56.3 -136C78.1 -129.1 104.5 -133.7 124.5 -124.5C144.4 -115.2 158.1 -91.9 166.3 -68.9C174.5 -45.8 177.3 -22.9 180 0L0 0Z" fill="#f6e2ba"></path><path d="M0 -90C8.6 -80.7 17.3 -71.5 28.2 -68C39.1 -64.5 52.2 -66.9 62.2 -62.2C72.2 -57.6 79 -46 83.1 -34.4C87.3 -22.9 88.6 -11.5 90 0L0 0Z" fill="#f5deb3"></path></g></svg>